<?xml version="1.0" encoding="UTF-8" standalone="no"?>
<!DOCTYPE svg PUBLIC "-//W3C//DTD SVG 1.1//EN"
 "http://www.w3.org/Graphics/SVG/1.1/DTD/svg11.dtd">
<!-- Generated by graphviz version 2.43.0 (0)
 -->
<!-- Title: FunctionalArchitecture Pages: 1 -->
<svg width="1203pt" height="44pt"
 viewBox="0.00 0.00 1203.00 44.00" xmlns="http://www.w3.org/2000/svg" xmlns:xlink="http://www.w3.org/1999/xlink">
<g id="graph0" class="graph" transform="scale(1 1) rotate(0) translate(4 40)">
<title>FunctionalArchitecture</title>
<polygon fill="white" stroke="transparent" points="-4,4 -4,-40 1199,-40 1199,4 -4,4"/>
<!-- input -->
<g id="node1" class="node">
<title>input</title>
<path fill="none" stroke="black" d="M86,-36C86,-36 12,-36 12,-36 6,-36 0,-30 0,-24 0,-24 0,-12 0,-12 0,-6 6,0 12,0 12,0 86,0 86,0 92,0 98,-6 98,-12 98,-12 98,-24 98,-24 98,-30 92,-36 86,-36"/>
<text text-anchor="middle" x="49" y="-14.3" font-family="Arial" font-size="14.00">Log File Input</text>
</g>
<!-- acquisition -->
<g id="node2" class="node">
<title>acquisition</title>
<path fill="none" stroke="black" d="M273,-36C273,-36 146,-36 146,-36 140,-36 134,-30 134,-24 134,-24 134,-12 134,-12 134,-6 140,0 146,0 146,0 273,0 273,0 279,0 285,-6 285,-12 285,-12 285,-24 285,-24 285,-30 279,-36 273,-36"/>
<text text-anchor="middle" x="209.5" y="-14.3" font-family="Arial" font-size="14.00">Data Acquisition Layer</text>
</g>
<!-- input&#45;&gt;acquisition -->
<g id="edge1" class="edge">
<title>input&#45;&gt;acquisition</title>
<path fill="none" stroke="black" d="M98.42,-18C106.46,-18 115.02,-18 123.66,-18"/>
<polygon fill="black" stroke="black" points="123.82,-21.5 133.82,-18 123.82,-14.5 123.82,-21.5"/>
</g>
<!-- normalization -->
<g id="node3" class="node">
<title>normalization</title>
<path fill="none" stroke="black" d="M446,-36C446,-36 333,-36 333,-36 327,-36 321,-30 321,-24 321,-24 321,-12 321,-12 321,-6 327,0 333,0 333,0 446,0 446,0 452,0 458,-6 458,-12 458,-12 458,-24 458,-24 458,-30 452,-36 446,-36"/>
<text text-anchor="middle" x="389.5" y="-14.3" font-family="Arial" font-size="14.00">Normalization Layer</text>
</g>
<!-- acquisition&#45;&gt;normalization -->
<g id="edge2" class="edge">
<title>acquisition&#45;&gt;normalization</title>
<path fill="none" stroke="black" d="M285.21,-18C293.6,-18 302.16,-18 310.59,-18"/>
<polygon fill="black" stroke="black" points="310.78,-21.5 320.78,-18 310.78,-14.5 310.78,-21.5"/>
</g>
<!-- detection -->
<g id="node4" class="node">
<title>detection</title>
<path fill="none" stroke="black" d="M593,-36C593,-36 506,-36 506,-36 500,-36 494,-30 494,-24 494,-24 494,-12 494,-12 494,-6 500,0 506,0 506,0 593,0 593,0 599,0 605,-6 605,-12 605,-12 605,-24 605,-24 605,-30 599,-36 593,-36"/>
<text text-anchor="middle" x="549.5" y="-14.3" font-family="Arial" font-size="14.00">Detection Layer</text>
</g>
<!-- normalization&#45;&gt;detection -->
<g id="edge3" class="edge">
<title>normalization&#45;&gt;detection</title>
<path fill="none" stroke="black" d="M458.42,-18C466.87,-18 475.48,-18 483.87,-18"/>
<polygon fill="black" stroke="black" points="483.97,-21.5 493.97,-18 483.97,-14.5 483.97,-21.5"/>
</g>
<!-- reasoning -->
<g id="node5" class="node">
<title>reasoning</title>
<path fill="none" stroke="black" d="M748,-36C748,-36 653,-36 653,-36 647,-36 641,-30 641,-24 641,-24 641,-12 641,-12 641,-6 647,0 653,0 653,0 748,0 748,0 754,0 760,-6 760,-12 760,-12 760,-24 760,-24 760,-30 754,-36 748,-36"/>
<text text-anchor="middle" x="700.5" y="-14.3" font-family="Arial" font-size="14.00">Reasoning Layer</text>
</g>
<!-- detection&#45;&gt;reasoning -->
<g id="edge4" class="edge">
<title>detection&#45;&gt;reasoning</title>
<path fill="none" stroke="black" d="M605.14,-18C613.49,-18 622.21,-18 630.82,-18"/>
<polygon fill="black" stroke="black" points="630.86,-21.5 640.86,-18 630.86,-14.5 630.86,-21.5"/>
</g>
<!-- decision -->
<g id="node6" class="node">
<title>decision</title>
<path fill="none" stroke="black" d="M890,-36C890,-36 808,-36 808,-36 802,-36 796,-30 796,-24 796,-24 796,-12 796,-12 796,-6 802,0 808,0 808,0 890,0 890,0 896,0 902,-6 902,-12 902,-12 902,-24 902,-24 902,-30 896,-36 890,-36"/>
<text text-anchor="middle" x="849" y="-14.3" font-family="Arial" font-size="14.00">Decision Layer</text>
</g>
<!-- reasoning&#45;&gt;decision -->
<g id="edge5" class="edge">
<title>reasoning&#45;&gt;decision</title>
<path fill="none" stroke="black" d="M760.24,-18C768.62,-18 777.26,-18 785.7,-18"/>
<polygon fill="black" stroke="black" points="785.87,-21.5 795.87,-18 785.87,-14.5 785.87,-21.5"/>
</g>
<!-- reporting -->
<g id="node7" class="node">
<title>reporting</title>
<path fill="none" stroke="black" d="M1039,-36C1039,-36 950,-36 950,-36 944,-36 938,-30 938,-24 938,-24 938,-12 938,-12 938,-6 944,0 950,0 950,0 1039,0 1039,0 1045,0 1051,-6 1051,-12 1051,-12 1051,-24 1051,-24 1051,-30 1045,-36 1039,-36"/>
<text text-anchor="middle" x="994.5" y="-14.3" font-family="Arial" font-size="14.00">Reporting Layer</text>
</g>
<!-- decision&#45;&gt;reporting -->
<g id="edge6" class="edge">
<title>decision&#45;&gt;reporting</title>
<path fill="none" stroke="black" d="M902.21,-18C910.42,-18 918.99,-18 927.46,-18"/>
<polygon fill="black" stroke="black" points="927.7,-21.5 937.7,-18 927.7,-14.5 927.7,-21.5"/>
</g>
<!-- output -->
<g id="node8" class="node">
<title>output</title>
<path fill="none" stroke="black" d="M1183,-36C1183,-36 1099,-36 1099,-36 1093,-36 1087,-30 1087,-24 1087,-24 1087,-12 1087,-12 1087,-6 1093,0 1099,0 1099,0 1183,0 1183,0 1189,0 1195,-6 1195,-12 1195,-12 1195,-24 1195,-24 1195,-30 1189,-36 1183,-36"/>
<text text-anchor="middle" x="1141" y="-14.3" font-family="Arial" font-size="14.00">Incident Report</text>
</g>
<!-- reporting&#45;&gt;output -->
<g id="edge7" class="edge">
<title>reporting&#45;&gt;output</title>
<path fill="none" stroke="black" d="M1051.37,-18C1059.61,-18 1068.15,-18 1076.54,-18"/>
<polygon fill="black" stroke="black" points="1076.65,-21.5 1086.65,-18 1076.65,-14.5 1076.65,-21.5"/>
</g>
</g>
</svg>
